<svg xmlns="http://www.w3.org/2000/svg" height="24" viewBox="0 -960 960 960" width="24"><path d="M450.001-610.001v-120h-120v-59.998h120v-120h59.998v120h120v59.998h-120v120h-59.998ZM286.154-97.694q-29.153 0-49.576-20.422-20.423-20.423-20.423-49.577 0-29.153 20.423-49.576 20.423-20.423 49.576-20.423 29.154 0 49.577 20.423t20.423 49.576q0 29.154-20.423 49.577-20.423 20.422-49.577 20.422Zm387.692 0q-29.154 0-49.577-20.422-20.423-20.423-20.423-49.577 0-29.153 20.423-49.576 20.423-20.423 49.577-20.423 29.153 0 49.576 20.423 20.423 20.423 20.423 49.576 0 29.154-20.423 49.577-20.423 20.422-49.576 20.422ZM60.001-810v-59.998h114.461l166.923 352.307h272.691q3.462 0 6.155-1.731 2.692-1.731 4.615-4.808l147.923-265.768h68.306l-163.691 295.69q-9.847 17.308-26.055 26.962-16.208 9.653-35.483 9.653H324l-46.308 84.616q-3.077 4.616-.192 10.001t8.654 5.385h457.691v59.998H286.154q-39.999 0-60.422-34.192-20.423-34.192-1.116-69.191l57.078-102.616-145.539-306.308H60.001Z"/></svg>